# Blender v2.83.13 OBJ File: 'E-card.blend'
# www.blender.org
mtllib E-card.mtl
o Card_Cube
v 1.308799 0.065562 -3.949802
v 1.463515 -0.017586 -4.104519
v 1.308799 0.065562 -2.259235
v 1.463515 -0.017586 -2.104519
v -1.308799 0.065562 -3.949802
v -1.463515 -0.017586 -4.104519
v -1.308799 0.065562 -2.259235
v -1.463515 -0.017586 -2.104519
v 1.463515 0.065562 -2.104519
v -1.463515 0.065562 -2.104519
v 1.463515 0.065562 -4.104519
v -1.463515 0.065562 -4.104519
v 1.308799 0.045382 -2.259235
v -1.308799 0.045382 -2.259235
v 1.308799 0.045382 -3.949802
v -1.308799 0.045382 -3.949802
vt 0.108987 0.731724
vt 0.112554 0.936893
vt 0.042879 0.975711
vt 0.040918 0.696918
vt 0.225989 0.870150
vt 0.163001 0.905537
vt 0.164823 0.767043
vt 0.226263 0.815812
vt 0.801392 0.766549
vt 0.750841 0.815063
vt 0.499452 0.037370
vt 0.498375 0.683839
vt 0.083562 0.684737
vt 0.080989 0.038031
vt 0.749095 0.869819
vt 0.801012 0.905923
vt 0.871335 0.937210
vt 0.877011 0.731162
vt 0.576930 0.686470
vt 0.579100 0.000098
vt 0.999902 0.001077
vt 0.999664 0.683454
vt 0.948183 0.696068
vt 0.940338 0.975754
vn 0.0000 0.0000 -1.0000
vn 0.0000 0.0000 1.0000
vn -1.0000 0.0000 0.0000
vn 0.0000 -1.0000 0.0000
vn 1.0000 0.0000 0.0000
vn 0.0000 1.0000 0.0000
g Card_Cube_Material
usemtl Material
s off
f 7/1/1 3/2/1 13/3/1 14/4/1
f 4/5/2 9/6/2 10/7/2 8/8/2
f 8/8/3 10/7/3 12/9/3 6/10/3
f 6/11/4 2/12/4 4/13/4 8/14/4
f 2/15/5 11/16/5 9/6/5 4/5/5
f 6/10/1 12/9/1 11/16/1 2/15/1
f 3/2/6 7/1/6 10/7/6 9/6/6
f 1/17/6 3/2/6 9/6/6 11/16/6
f 7/1/6 5/18/6 12/9/6 10/7/6
f 5/18/6 1/17/6 11/16/6 12/9/6
f 15/19/6 16/20/6 14/21/6 13/22/6
f 1/17/2 5/18/2 16/23/2 15/24/2
f 3/2/3 1/17/3 15/24/3 13/3/3
f 5/18/5 7/1/5 14/4/5 16/23/5
o Card.001_Cube.001
v 1.308799 0.065562 -0.838035
v 1.463515 -0.017586 -0.992751
v 1.308799 0.065562 0.852532
v 1.463515 -0.017586 1.007249
v -1.308799 0.065562 -0.838035
v -1.463515 -0.017586 -0.992751
v -1.308799 0.065562 0.852532
v -1.463515 -0.017586 1.007249
v 1.463515 0.065562 1.007249
v -1.463515 0.065562 1.007249
v 1.463515 0.065562 -0.992751
v -1.463515 0.065562 -0.992751
v 1.308799 0.045382 0.852532
v -1.308799 0.045382 0.852532
v 1.308799 0.045382 -0.838035
v -1.308799 0.045382 -0.838035
vt 0.108987 0.731724
vt 0.112554 0.936893
vt 0.042879 0.975711
vt 0.040918 0.696918
vt 0.225989 0.870150
vt 0.163001 0.905537
vt 0.164823 0.767043
vt 0.226263 0.815812
vt 0.801392 0.766549
vt 0.750841 0.815063
vt 0.499452 0.037370
vt 0.498375 0.683839
vt 0.083562 0.684737
vt 0.080989 0.038031
vt 0.749095 0.869819
vt 0.801012 0.905923
vt 0.871335 0.937210
vt 0.877011 0.731162
vt 0.576930 0.686470
vt 0.579100 0.000098
vt 0.999902 0.001077
vt 0.999664 0.683454
vt 0.948183 0.696068
vt 0.940338 0.975754
vn 0.0000 0.0000 -1.0000
vn 0.0000 0.0000 1.0000
vn -1.0000 0.0000 0.0000
vn 0.0000 -1.0000 0.0000
vn 1.0000 0.0000 0.0000
vn 0.0000 1.0000 0.0000
g Card.001_Cube.001_Material.001
usemtl Material.001
s off
f 23/25/7 19/26/7 29/27/7 30/28/7
f 20/29/8 25/30/8 26/31/8 24/32/8
f 24/32/9 26/31/9 28/33/9 22/34/9
f 22/35/10 18/36/10 20/37/10 24/38/10
f 18/39/11 27/40/11 25/30/11 20/29/11
f 22/34/7 28/33/7 27/40/7 18/39/7
f 19/26/12 23/25/12 26/31/12 25/30/12
f 17/41/12 19/26/12 25/30/12 27/40/12
f 23/25/12 21/42/12 28/33/12 26/31/12
f 21/42/12 17/41/12 27/40/12 28/33/12
f 31/43/12 32/44/12 30/45/12 29/46/12
f 17/41/8 21/42/8 32/47/8 31/48/8
f 19/26/9 17/41/9 31/48/9 29/27/9
f 21/42/11 23/25/11 30/28/11 32/47/11
o Card.002_Cube.002
v 1.308799 0.065562 2.121526
v 1.463515 -0.017586 1.966809
v 1.308799 0.065562 3.812092
v 1.463515 -0.017586 3.966809
v -1.308799 0.065562 2.121526
v -1.463515 -0.017586 1.966809
v -1.308799 0.065562 3.812092
v -1.463515 -0.017586 3.966809
v 1.463515 0.065562 3.966809
v -1.463515 0.065562 3.966809
v 1.463515 0.065562 1.966809
v -1.463515 0.065562 1.966809
v 1.308799 0.045382 3.812092
v -1.308799 0.045382 3.812092
v 1.308799 0.045382 2.121526
v -1.308799 0.045382 2.121526
vt 0.108987 0.731724
vt 0.112554 0.936893
vt 0.042879 0.975711
vt 0.040918 0.696918
vt 0.225989 0.870150
vt 0.163001 0.905537
vt 0.164823 0.767043
vt 0.226263 0.815812
vt 0.801392 0.766549
vt 0.750841 0.815063
vt 0.499452 0.037370
vt 0.498375 0.683839
vt 0.083562 0.684737
vt 0.080989 0.038031
vt 0.749095 0.869819
vt 0.801012 0.905923
vt 0.871335 0.937210
vt 0.877011 0.731162
vt 0.576930 0.686470
vt 0.579100 0.000098
vt 0.999902 0.001077
vt 0.999664 0.683454
vt 0.948183 0.696068
vt 0.940338 0.975754
vn 0.0000 0.0000 -1.0000
vn 0.0000 0.0000 1.0000
vn -1.0000 0.0000 0.0000
vn 0.0000 -1.0000 0.0000
vn 1.0000 0.0000 0.0000
vn 0.0000 1.0000 0.0000
g Card.002_Cube.002_Material.002
usemtl Material.002
s off
f 39/49/13 35/50/13 45/51/13 46/52/13
f 36/53/14 41/54/14 42/55/14 40/56/14
f 40/56/15 42/55/15 44/57/15 38/58/15
f 38/59/16 34/60/16 36/61/16 40/62/16
f 34/63/17 43/64/17 41/54/17 36/53/17
f 38/58/13 44/57/13 43/64/13 34/63/13
f 35/50/18 39/49/18 42/55/18 41/54/18
f 33/65/18 35/50/18 41/54/18 43/64/18
f 39/49/18 37/66/18 44/57/18 42/55/18
f 37/66/18 33/65/18 43/64/18 44/57/18
f 47/67/18 48/68/18 46/69/18 45/70/18
f 33/65/14 37/66/14 48/71/14 47/72/14
f 35/50/15 33/65/15 47/72/15 45/51/15
f 37/66/17 39/49/17 46/52/17 48/71/17
